<?xml version="1.0" encoding="UTF-8" standalone="no"?><!DOCTYPE svg PUBLIC "-//W3C//DTD SVG 1.1//EN" "http://www.w3.org/Graphics/SVG/1.1/DTD/svg11.dtd"><svg width="100%" height="100%" viewBox="0 0 192 192" version="1.1" xmlns="http://www.w3.org/2000/svg" xmlns:xlink="http://www.w3.org/1999/xlink" xml:space="preserve" xmlns:serif="http://www.serif.com/" style="fill-rule:evenodd;clip-rule:evenodd;stroke-linejoin:round;stroke-miterlimit:2;"><circle cx="96" cy="96" r="96" style="fill:#141a26;"/><path d="M130.281,77.318c0,6.388 -1.609,11.93 -4.828,16.624c-3.218,4.694 -7.78,8.324 -13.684,10.889c-5.904,2.565 -12.898,3.848 -20.98,3.848c-5.13,0 -9.945,-0.544 -14.446,-1.633c-4.501,-1.089 -8.469,-2.65 -11.905,-4.682l1.089,-7.695c1.887,1.162 3.86,2.142 5.916,2.94c2.057,0.799 4.21,1.391 6.461,1.779c2.25,0.387 4.586,0.581 7.005,0.581c4.501,0 8.506,-0.883 12.014,-2.65c3.509,-1.766 6.267,-4.392 8.276,-7.876c2.008,-3.485 3.013,-7.719 3.013,-12.704c0,-5.469 -1.174,-10.248 -3.521,-14.337c-2.347,-4.089 -5.65,-7.284 -9.909,-9.582c-4.259,-2.299 -9.316,-3.448 -15.172,-3.448l-5.59,0l0,77.603c0,1.452 0.351,2.601 1.053,3.448c0.702,0.847 1.754,1.416 3.158,1.706l5.662,1.162c1.258,0.339 2.178,0.871 2.759,1.597c0.581,0.726 0.871,1.694 0.871,2.904c0,1.307 -0.411,2.335 -1.234,3.085c-0.823,0.75 -2.129,1.125 -3.92,1.125l-36.805,0c-1.791,0 -3.109,-0.375 -3.956,-1.125c-0.847,-0.75 -1.27,-1.779 -1.27,-3.085c0,-2.178 1.186,-3.727 3.557,-4.646l3.485,-1.016c1.307,-0.387 2.323,-0.98 3.049,-1.779c0.726,-0.799 1.089,-1.924 1.089,-3.376l0,-71.578c0,-1.452 -0.363,-2.577 -1.089,-3.376c-0.726,-0.799 -1.742,-1.391 -3.049,-1.779l-3.485,-1.016c-2.371,-0.92 -3.557,-2.468 -3.557,-4.646c0,-1.307 0.423,-2.335 1.27,-3.085c0.847,-0.75 2.166,-1.125 3.956,-1.125l34.773,0c10.647,0 19.685,1.609 27.114,4.828c7.429,3.218 13.091,7.61 16.987,13.176c3.896,5.566 5.844,11.881 5.844,18.947Z" style="fill:#e4e8f0;fill-rule:nonzero;"/><path d="M135.475,144.178c-3.194,0 -6.098,-0.811 -8.711,-2.432c-2.613,-1.621 -4.682,-3.787 -6.207,-6.497c-1.524,-2.71 -2.287,-5.638 -2.287,-8.784c0,-3.194 0.762,-6.11 2.287,-8.748c1.524,-2.638 3.593,-4.755 6.207,-6.352c2.613,-1.597 5.517,-2.396 8.711,-2.396c3.243,0 6.171,0.799 8.784,2.396c2.613,1.597 4.682,3.714 6.207,6.352c1.524,2.638 2.287,5.553 2.287,8.748c0,3.146 -0.762,6.074 -2.287,8.784c-1.524,2.71 -3.593,4.876 -6.207,6.497c-2.613,1.621 -5.541,2.432 -8.784,2.432Z" style="fill:#e07a62;fill-rule:nonzero;"/></svg>